<?xml version="1.0" encoding="UTF-8" standalone="no"?>
<!-- Created with Inkscape (http://www.inkscape.org/) -->

<svg
   version="1.1"
   id="svg1"
   width="1024"
   height="1024"
   viewBox="0 0 1024 1024"
   xmlns="http://www.w3.org/2000/svg"
   xmlns:svg="http://www.w3.org/2000/svg">
  <defs
     id="defs1" />
  <g
     id="g1"
     transform="translate(-1108.5,-337.03158)">
    <g
       id="g2"
       transform="matrix(1.0552004,0,0,1.0552004,-89.452301,-46.86688)">
      <path
         style="display:inline;fill:#22539a;fill-opacity:1;stroke-width:1.37373"
         d="m 1609.0823,1325.0043 c -2.8797,-1.0566 -14.7746,-7.5821 -26.4331,-14.5011 l -21.1973,-12.58 -0.3549,-159.867 -0.3545,-159.86679 41.5555,1e-4 41.5554,10e-5 v 170.23619 170.2363 l -8.4618,4.2285 c -9.4347,4.7146 -17.463,5.3595 -26.3093,2.1137 z m 80.7915,-177.1097 v -143.5377 l 21.2929,-0.3766 21.2928,-0.3766 v -71.43434 -71.43439 l -20.2625,-0.38016 -20.2627,-0.38016 v -66.45349 -66.45349 l -13.3488,-9.40972 -13.3488,-9.40972 -12.0049,-57.0092 c -6.6025,-31.35505 -16.4692,-78.80011 -21.9258,-105.43346 -5.4566,-26.63334 -10.3288,-48.42426 -10.8272,-48.42426 -0.4982,0 -3.2269,11.28182 -6.0635,25.07073 -2.8368,13.78889 -9.1577,44.23435 -14.0463,67.65657 -4.8887,23.42224 -12.2366,58.82849 -16.3286,78.68058 -4.0918,19.8521 -8.0327,37.20246 -8.7572,38.55642 -0.7247,1.35395 -6.92,6.37021 -13.7675,11.14724 l -12.45,8.68554 v 66.39812 66.39814 l -20.2626,0.38016 -20.2627,0.38016 -0.3517,109.55554 -0.3516,109.55559 h 4.8163 4.8163 v 95.4748 c 0,52.5112 -0.4636,95.4497 -1.0303,95.419 -0.5666,-0.03 -18.9575,-10.7526 -40.8687,-23.8265 l -39.8384,-23.7705 -0.3557,-71.7053 -0.3558,-71.7053 23.7093,0.1815 23.7092,0.1813 0.3558,-71.5588 c 0.1956,-39.35742 0.061,-71.55891 -0.3015,-71.55891 -0.3614,0 -17.2122,9.6606 -37.4465,21.46796 -20.2343,11.80748 -38.1769,22.10506 -39.8723,22.88356 l -3.0828,1.4155 -0.3516,110.24599 -0.3515,110.246 -55.6552,-33.19 c -30.6105,-18.2545 -70.1248,-41.7869 -87.8099,-52.2941 -17.685,-10.5072 -34.4483,-21.176 -37.2514,-23.7085 -2.803,-2.5324 -6.5614,-7.8448 -8.3518,-11.8051 l -3.255,-7.2006 V 849.05819 c 0,-222.57552 0.042,-226.09233 2.7475,-233.44542 1.511,-4.10605 4.602,-9.39427 6.8686,-11.75161 2.2666,-2.35732 27.6122,-18.09677 56.3232,-34.97653 28.7112,-16.87977 87.7475,-51.82834 131.1921,-77.66349 43.4445,-25.83514 93.5171,-55.50738 111.2727,-65.93833 17.7555,-10.43094 43.525,-25.68845 57.2654,-33.90559 13.7403,-8.21713 27.6495,-16.15055 30.909,-17.62984 7.7797,-3.53057 21.7383,-3.62094 29.2801,-0.18954 3.0223,1.37502 28.3677,15.98898 56.3233,32.47545 27.9556,16.48645 74.6283,44.00279 103.7172,61.1474 29.0889,17.14461 57.2162,33.82329 62.5051,37.06374 5.2889,3.24045 43.6162,25.96022 85.1717,50.48839 41.5557,24.52816 77.2539,46.19047 79.3295,48.13844 2.0755,1.94799 5.1665,6.98238 6.8686,11.18756 l 3.0949,7.64576 v 226.66675 226.66677 l -3.1757,7.0162 c -1.7467,3.8589 -5.4559,9.2018 -8.2425,11.8733 -4.0634,3.8951 -73.1975,45.7977 -160.9859,97.5743 -6.4222,3.7877 -13.5432,7.9952 -15.8244,9.3498 l -4.1476,2.4632 0.026,-156.1789 0.027,-156.1788 h -34.3434 -34.3435 l -0.6868,176.8536 -0.6869,176.8532 -38.4646,22.8232 c -21.1556,12.5527 -39.083,23.0755 -39.8385,23.3841 -0.9106,0.3719 -1.3737,-47.8269 -1.3737,-142.9767 z"
         id="path2" />
    </g>
  </g>
</svg>
